<mxfile host="app.diagrams.net" modified="2024-02-02T08:16:01.104Z" agent="Mozilla/5.0 (X11; Linux x86_64; rv:122.0) Gecko/20100101 Firefox/122.0" etag="JhjUppgVec_OSdXLDyMD" version="23.0.2" type="device">
  <diagram id="R2lEEEUBdFMjLlhIrx00" name="Page-1">
    <mxGraphModel dx="1195" dy="658" grid="1" gridSize="10" guides="1" tooltips="1" connect="1" arrows="1" fold="1" page="1" pageScale="1" pageWidth="850" pageHeight="1100" math="0" shadow="0" extFonts="Permanent Marker^https://fonts.googleapis.com/css?family=Permanent+Marker">
      <root>
        <mxCell id="0" />
        <mxCell id="1" parent="0" />
        <mxCell id="sJHSFBgC8o73ES_fJM79-1" value="Musician" style="whiteSpace=wrap;html=1;align=center;" vertex="1" parent="1">
          <mxGeometry x="65" y="350" width="100" height="40" as="geometry" />
        </mxCell>
        <mxCell id="sJHSFBgC8o73ES_fJM79-2" value="ssn" style="ellipse;whiteSpace=wrap;html=1;align=center;fontStyle=4;" vertex="1" parent="1">
          <mxGeometry x="5" y="290" width="100" height="40" as="geometry" />
        </mxCell>
        <mxCell id="sJHSFBgC8o73ES_fJM79-3" value="name" style="ellipse;whiteSpace=wrap;html=1;align=center;" vertex="1" parent="1">
          <mxGeometry x="125" y="290" width="100" height="40" as="geometry" />
        </mxCell>
        <mxCell id="sJHSFBgC8o73ES_fJM79-5" value="" style="endArrow=none;html=1;rounded=0;exitX=0.5;exitY=1;exitDx=0;exitDy=0;entryX=0.5;entryY=0;entryDx=0;entryDy=0;" edge="1" parent="1" source="sJHSFBgC8o73ES_fJM79-2" target="sJHSFBgC8o73ES_fJM79-1">
          <mxGeometry relative="1" as="geometry">
            <mxPoint x="295" y="590" as="sourcePoint" />
            <mxPoint x="455" y="590" as="targetPoint" />
          </mxGeometry>
        </mxCell>
        <mxCell id="sJHSFBgC8o73ES_fJM79-6" value="" style="endArrow=none;html=1;rounded=0;exitX=0.5;exitY=1;exitDx=0;exitDy=0;entryX=0.5;entryY=0;entryDx=0;entryDy=0;" edge="1" parent="1" source="sJHSFBgC8o73ES_fJM79-3" target="sJHSFBgC8o73ES_fJM79-1">
          <mxGeometry relative="1" as="geometry">
            <mxPoint x="65" y="340" as="sourcePoint" />
            <mxPoint x="125" y="360" as="targetPoint" />
          </mxGeometry>
        </mxCell>
        <mxCell id="sJHSFBgC8o73ES_fJM79-7" value="Lives_In" style="shape=rhombus;perimeter=rhombusPerimeter;whiteSpace=wrap;html=1;align=center;" vertex="1" parent="1">
          <mxGeometry x="225" y="340" width="120" height="60" as="geometry" />
        </mxCell>
        <mxCell id="sJHSFBgC8o73ES_fJM79-8" value="Address" style="whiteSpace=wrap;html=1;align=center;" vertex="1" parent="1">
          <mxGeometry x="405" y="350" width="100" height="40" as="geometry" />
        </mxCell>
        <mxCell id="sJHSFBgC8o73ES_fJM79-9" value="name" style="ellipse;whiteSpace=wrap;html=1;align=center;fontStyle=4;" vertex="1" parent="1">
          <mxGeometry x="405" y="290" width="100" height="40" as="geometry" />
        </mxCell>
        <mxCell id="sJHSFBgC8o73ES_fJM79-14" value="" style="endArrow=none;html=1;rounded=0;exitX=0.5;exitY=1;exitDx=0;exitDy=0;entryX=0.5;entryY=0;entryDx=0;entryDy=0;" edge="1" parent="1" source="sJHSFBgC8o73ES_fJM79-9" target="sJHSFBgC8o73ES_fJM79-8">
          <mxGeometry relative="1" as="geometry">
            <mxPoint x="275" y="460" as="sourcePoint" />
            <mxPoint x="435" y="460" as="targetPoint" />
          </mxGeometry>
        </mxCell>
        <mxCell id="sJHSFBgC8o73ES_fJM79-16" value="" style="endArrow=block;html=1;rounded=0;exitX=1;exitY=0.5;exitDx=0;exitDy=0;endFill=1;strokeWidth=2;" edge="1" parent="1" source="sJHSFBgC8o73ES_fJM79-1" target="sJHSFBgC8o73ES_fJM79-7">
          <mxGeometry relative="1" as="geometry">
            <mxPoint x="275" y="460" as="sourcePoint" />
            <mxPoint x="435" y="460" as="targetPoint" />
          </mxGeometry>
        </mxCell>
        <mxCell id="sJHSFBgC8o73ES_fJM79-17" value="" style="endArrow=none;html=1;rounded=0;exitX=1;exitY=0.5;exitDx=0;exitDy=0;entryX=0;entryY=0.5;entryDx=0;entryDy=0;" edge="1" parent="1" source="sJHSFBgC8o73ES_fJM79-7" target="sJHSFBgC8o73ES_fJM79-8">
          <mxGeometry relative="1" as="geometry">
            <mxPoint x="175" y="380" as="sourcePoint" />
            <mxPoint x="235" y="380" as="targetPoint" />
          </mxGeometry>
        </mxCell>
        <mxCell id="sJHSFBgC8o73ES_fJM79-18" value="Instrument" style="whiteSpace=wrap;html=1;align=center;" vertex="1" parent="1">
          <mxGeometry x="405" y="480" width="100" height="40" as="geometry" />
        </mxCell>
        <mxCell id="sJHSFBgC8o73ES_fJM79-19" value="name" style="ellipse;whiteSpace=wrap;html=1;align=center;fontStyle=4;" vertex="1" parent="1">
          <mxGeometry x="345" y="420" width="100" height="40" as="geometry" />
        </mxCell>
        <mxCell id="sJHSFBgC8o73ES_fJM79-21" value="" style="endArrow=none;html=1;rounded=0;exitX=0.5;exitY=1;exitDx=0;exitDy=0;entryX=0.5;entryY=0;entryDx=0;entryDy=0;" edge="1" parent="1" source="sJHSFBgC8o73ES_fJM79-19" target="sJHSFBgC8o73ES_fJM79-18">
          <mxGeometry relative="1" as="geometry">
            <mxPoint x="635" y="720" as="sourcePoint" />
            <mxPoint x="795" y="720" as="targetPoint" />
          </mxGeometry>
        </mxCell>
        <mxCell id="sJHSFBgC8o73ES_fJM79-22" value="" style="endArrow=none;html=1;rounded=0;exitX=0.5;exitY=1;exitDx=0;exitDy=0;entryX=0.5;entryY=0;entryDx=0;entryDy=0;" edge="1" parent="1" target="sJHSFBgC8o73ES_fJM79-18">
          <mxGeometry relative="1" as="geometry">
            <mxPoint x="515" y="460" as="sourcePoint" />
            <mxPoint x="465" y="490" as="targetPoint" />
          </mxGeometry>
        </mxCell>
        <mxCell id="sJHSFBgC8o73ES_fJM79-24" value="Album" style="whiteSpace=wrap;html=1;align=center;" vertex="1" parent="1">
          <mxGeometry x="65" y="710" width="100" height="40" as="geometry" />
        </mxCell>
        <mxCell id="sJHSFBgC8o73ES_fJM79-25" value="id" style="ellipse;whiteSpace=wrap;html=1;align=center;fontStyle=4;" vertex="1" parent="1">
          <mxGeometry x="5" y="650" width="100" height="40" as="geometry" />
        </mxCell>
        <mxCell id="sJHSFBgC8o73ES_fJM79-26" value="title" style="ellipse;whiteSpace=wrap;html=1;align=center;" vertex="1" parent="1">
          <mxGeometry x="125" y="650" width="100" height="40" as="geometry" />
        </mxCell>
        <mxCell id="sJHSFBgC8o73ES_fJM79-29" value="copyright_date" style="ellipse;whiteSpace=wrap;html=1;align=center;" vertex="1" parent="1">
          <mxGeometry x="5" y="770" width="100" height="40" as="geometry" />
        </mxCell>
        <mxCell id="sJHSFBgC8o73ES_fJM79-30" value="format" style="ellipse;whiteSpace=wrap;html=1;align=center;" vertex="1" parent="1">
          <mxGeometry x="125" y="770" width="100" height="40" as="geometry" />
        </mxCell>
        <mxCell id="sJHSFBgC8o73ES_fJM79-31" value="" style="endArrow=none;html=1;rounded=0;exitX=0.5;exitY=1;exitDx=0;exitDy=0;entryX=0.5;entryY=0;entryDx=0;entryDy=0;" edge="1" parent="1" source="sJHSFBgC8o73ES_fJM79-25" target="sJHSFBgC8o73ES_fJM79-24">
          <mxGeometry relative="1" as="geometry">
            <mxPoint x="65" y="560" as="sourcePoint" />
            <mxPoint x="125" y="580" as="targetPoint" />
          </mxGeometry>
        </mxCell>
        <mxCell id="sJHSFBgC8o73ES_fJM79-32" value="" style="endArrow=none;html=1;rounded=0;exitX=0.5;exitY=0;exitDx=0;exitDy=0;entryX=0.5;entryY=1;entryDx=0;entryDy=0;" edge="1" parent="1" source="sJHSFBgC8o73ES_fJM79-29" target="sJHSFBgC8o73ES_fJM79-24">
          <mxGeometry relative="1" as="geometry">
            <mxPoint x="65" y="700" as="sourcePoint" />
            <mxPoint x="125" y="720" as="targetPoint" />
          </mxGeometry>
        </mxCell>
        <mxCell id="sJHSFBgC8o73ES_fJM79-33" value="" style="endArrow=none;html=1;rounded=0;exitX=0.5;exitY=1;exitDx=0;exitDy=0;entryX=0.5;entryY=0;entryDx=0;entryDy=0;" edge="1" parent="1" source="sJHSFBgC8o73ES_fJM79-26" target="sJHSFBgC8o73ES_fJM79-24">
          <mxGeometry relative="1" as="geometry">
            <mxPoint x="65" y="780" as="sourcePoint" />
            <mxPoint x="125" y="760" as="targetPoint" />
          </mxGeometry>
        </mxCell>
        <mxCell id="sJHSFBgC8o73ES_fJM79-34" value="" style="endArrow=none;html=1;rounded=0;exitX=0.5;exitY=0;exitDx=0;exitDy=0;entryX=0.5;entryY=1;entryDx=0;entryDy=0;" edge="1" parent="1" source="sJHSFBgC8o73ES_fJM79-30" target="sJHSFBgC8o73ES_fJM79-24">
          <mxGeometry relative="1" as="geometry">
            <mxPoint x="185" y="700" as="sourcePoint" />
            <mxPoint x="125" y="720" as="targetPoint" />
          </mxGeometry>
        </mxCell>
        <mxCell id="sJHSFBgC8o73ES_fJM79-35" value="Song" style="whiteSpace=wrap;html=1;align=center;" vertex="1" parent="1">
          <mxGeometry x="405" y="710" width="100" height="40" as="geometry" />
        </mxCell>
        <mxCell id="sJHSFBgC8o73ES_fJM79-36" value="title" style="ellipse;whiteSpace=wrap;html=1;align=center;fontStyle=4;" vertex="1" parent="1">
          <mxGeometry x="405" y="770" width="100" height="40" as="geometry" />
        </mxCell>
        <mxCell id="sJHSFBgC8o73ES_fJM79-40" value="author" style="ellipse;whiteSpace=wrap;html=1;align=center;fontStyle=4;" vertex="1" parent="1">
          <mxGeometry x="405" y="650" width="100" height="40" as="geometry" />
        </mxCell>
        <mxCell id="sJHSFBgC8o73ES_fJM79-41" value="Plays" style="shape=rhombus;perimeter=rhombusPerimeter;whiteSpace=wrap;html=1;align=center;" vertex="1" parent="1">
          <mxGeometry x="225" y="470" width="120" height="60" as="geometry" />
        </mxCell>
        <mxCell id="sJHSFBgC8o73ES_fJM79-42" value="" style="endArrow=none;html=1;rounded=0;exitX=1;exitY=0.5;exitDx=0;exitDy=0;entryX=0;entryY=0.5;entryDx=0;entryDy=0;" edge="1" parent="1" source="sJHSFBgC8o73ES_fJM79-41" target="sJHSFBgC8o73ES_fJM79-18">
          <mxGeometry relative="1" as="geometry">
            <mxPoint x="355" y="380" as="sourcePoint" />
            <mxPoint x="415" y="380" as="targetPoint" />
          </mxGeometry>
        </mxCell>
        <mxCell id="sJHSFBgC8o73ES_fJM79-43" value="" style="endArrow=none;html=1;rounded=0;entryX=0;entryY=0.5;entryDx=0;entryDy=0;strokeWidth=1;" edge="1" parent="1" target="sJHSFBgC8o73ES_fJM79-41">
          <mxGeometry relative="1" as="geometry">
            <mxPoint x="165" y="370" as="sourcePoint" />
            <mxPoint x="415" y="510" as="targetPoint" />
          </mxGeometry>
        </mxCell>
        <mxCell id="sJHSFBgC8o73ES_fJM79-44" value="Contains" style="shape=rhombus;perimeter=rhombusPerimeter;whiteSpace=wrap;html=1;align=center;" vertex="1" parent="1">
          <mxGeometry x="225" y="700" width="120" height="60" as="geometry" />
        </mxCell>
        <mxCell id="sJHSFBgC8o73ES_fJM79-45" value="" style="endArrow=none;html=1;rounded=0;exitX=1;exitY=0.5;exitDx=0;exitDy=0;entryX=0;entryY=0.5;entryDx=0;entryDy=0;startArrow=classic;startFill=1;" edge="1" parent="1">
          <mxGeometry relative="1" as="geometry">
            <mxPoint x="345" y="729.58" as="sourcePoint" />
            <mxPoint x="405" y="729.58" as="targetPoint" />
          </mxGeometry>
        </mxCell>
        <mxCell id="sJHSFBgC8o73ES_fJM79-46" value="" style="endArrow=none;html=1;rounded=0;entryX=0;entryY=0.5;entryDx=0;entryDy=0;strokeWidth=2;exitX=1;exitY=0.5;exitDx=0;exitDy=0;" edge="1" parent="1" source="sJHSFBgC8o73ES_fJM79-24" target="sJHSFBgC8o73ES_fJM79-44">
          <mxGeometry relative="1" as="geometry">
            <mxPoint x="175" y="470" as="sourcePoint" />
            <mxPoint x="235" y="600" as="targetPoint" />
          </mxGeometry>
        </mxCell>
        <mxCell id="sJHSFBgC8o73ES_fJM79-48" value="Performed" style="shape=rhombus;perimeter=rhombusPerimeter;whiteSpace=wrap;html=1;align=center;" vertex="1" parent="1">
          <mxGeometry x="225" y="560" width="120" height="60" as="geometry" />
        </mxCell>
        <mxCell id="sJHSFBgC8o73ES_fJM79-49" value="" style="endArrow=none;html=1;rounded=0;entryX=0;entryY=0.5;entryDx=0;entryDy=0;" edge="1" parent="1" target="sJHSFBgC8o73ES_fJM79-48">
          <mxGeometry relative="1" as="geometry">
            <mxPoint x="165" y="370" as="sourcePoint" />
            <mxPoint x="415" y="510" as="targetPoint" />
          </mxGeometry>
        </mxCell>
        <mxCell id="sJHSFBgC8o73ES_fJM79-50" value="" style="endArrow=none;html=1;rounded=0;exitX=0.5;exitY=0;exitDx=0;exitDy=0;entryX=0.5;entryY=1;entryDx=0;entryDy=0;" edge="1" parent="1" source="sJHSFBgC8o73ES_fJM79-36" target="sJHSFBgC8o73ES_fJM79-35">
          <mxGeometry relative="1" as="geometry">
            <mxPoint x="185" y="780" as="sourcePoint" />
            <mxPoint x="125" y="760" as="targetPoint" />
          </mxGeometry>
        </mxCell>
        <mxCell id="sJHSFBgC8o73ES_fJM79-51" value="" style="endArrow=none;html=1;rounded=0;entryX=0.5;entryY=1;entryDx=0;entryDy=0;" edge="1" parent="1" target="sJHSFBgC8o73ES_fJM79-40">
          <mxGeometry relative="1" as="geometry">
            <mxPoint x="455" y="710" as="sourcePoint" />
            <mxPoint x="465" y="760" as="targetPoint" />
          </mxGeometry>
        </mxCell>
        <mxCell id="sJHSFBgC8o73ES_fJM79-53" value="" style="endArrow=none;html=1;rounded=0;entryX=0;entryY=0.5;entryDx=0;entryDy=0;exitX=1;exitY=0.5;exitDx=0;exitDy=0;strokeWidth=2;" edge="1" parent="1" source="sJHSFBgC8o73ES_fJM79-48" target="sJHSFBgC8o73ES_fJM79-35">
          <mxGeometry relative="1" as="geometry">
            <mxPoint x="175" y="380" as="sourcePoint" />
            <mxPoint x="235" y="600" as="targetPoint" />
          </mxGeometry>
        </mxCell>
        <mxCell id="sJHSFBgC8o73ES_fJM79-54" value="Produced" style="shape=rhombus;perimeter=rhombusPerimeter;whiteSpace=wrap;html=1;align=center;" vertex="1" parent="1">
          <mxGeometry x="55" y="510" width="120" height="60" as="geometry" />
        </mxCell>
        <mxCell id="sJHSFBgC8o73ES_fJM79-55" value="" style="endArrow=none;html=1;rounded=0;exitX=0.5;exitY=1;exitDx=0;exitDy=0;startArrow=classic;startFill=1;strokeWidth=2;" edge="1" parent="1" source="sJHSFBgC8o73ES_fJM79-54">
          <mxGeometry relative="1" as="geometry">
            <mxPoint x="355" y="739.58" as="sourcePoint" />
            <mxPoint x="115" y="710" as="targetPoint" />
          </mxGeometry>
        </mxCell>
        <mxCell id="sJHSFBgC8o73ES_fJM79-56" value="" style="endArrow=none;html=1;rounded=0;entryX=0.5;entryY=0;entryDx=0;entryDy=0;exitX=0.5;exitY=1;exitDx=0;exitDy=0;" edge="1" parent="1" source="sJHSFBgC8o73ES_fJM79-1" target="sJHSFBgC8o73ES_fJM79-54">
          <mxGeometry relative="1" as="geometry">
            <mxPoint x="355" y="600" as="sourcePoint" />
            <mxPoint x="415" y="740" as="targetPoint" />
          </mxGeometry>
        </mxCell>
        <mxCell id="sJHSFBgC8o73ES_fJM79-57" value="key" style="ellipse;whiteSpace=wrap;html=1;align=center;fontStyle=4;" vertex="1" parent="1">
          <mxGeometry x="465" y="420" width="100" height="40" as="geometry" />
        </mxCell>
        <mxCell id="sJHSFBgC8o73ES_fJM79-58" value="Reached_By" style="shape=rhombus;perimeter=rhombusPerimeter;whiteSpace=wrap;html=1;align=center;" vertex="1" parent="1">
          <mxGeometry x="565" y="340" width="120" height="60" as="geometry" />
        </mxCell>
        <mxCell id="sJHSFBgC8o73ES_fJM79-59" value="Phone" style="whiteSpace=wrap;html=1;align=center;" vertex="1" parent="1">
          <mxGeometry x="745" y="350" width="100" height="40" as="geometry" />
        </mxCell>
        <mxCell id="sJHSFBgC8o73ES_fJM79-60" value="number" style="ellipse;whiteSpace=wrap;html=1;align=center;fontStyle=4;" vertex="1" parent="1">
          <mxGeometry x="745" y="290" width="100" height="40" as="geometry" />
        </mxCell>
        <mxCell id="sJHSFBgC8o73ES_fJM79-61" value="" style="endArrow=none;html=1;rounded=0;exitX=0.5;exitY=1;exitDx=0;exitDy=0;entryX=0.5;entryY=0;entryDx=0;entryDy=0;" edge="1" parent="1" source="sJHSFBgC8o73ES_fJM79-60" target="sJHSFBgC8o73ES_fJM79-59">
          <mxGeometry relative="1" as="geometry">
            <mxPoint x="615" y="460" as="sourcePoint" />
            <mxPoint x="775" y="460" as="targetPoint" />
          </mxGeometry>
        </mxCell>
        <mxCell id="sJHSFBgC8o73ES_fJM79-62" value="" style="endArrow=block;html=1;rounded=0;exitX=1;exitY=0.5;exitDx=0;exitDy=0;endFill=1;strokeWidth=2;" edge="1" parent="1">
          <mxGeometry relative="1" as="geometry">
            <mxPoint x="505" y="369.6" as="sourcePoint" />
            <mxPoint x="565" y="369.6" as="targetPoint" />
          </mxGeometry>
        </mxCell>
        <mxCell id="sJHSFBgC8o73ES_fJM79-63" value="" style="endArrow=block;html=1;rounded=0;exitX=0;exitY=0.5;exitDx=0;exitDy=0;endFill=1;strokeWidth=1;entryX=1;entryY=0.5;entryDx=0;entryDy=0;" edge="1" parent="1" source="sJHSFBgC8o73ES_fJM79-59" target="sJHSFBgC8o73ES_fJM79-58">
          <mxGeometry relative="1" as="geometry">
            <mxPoint x="515" y="379.6" as="sourcePoint" />
            <mxPoint x="575" y="379.6" as="targetPoint" />
          </mxGeometry>
        </mxCell>
      </root>
    </mxGraphModel>
  </diagram>
</mxfile>
